G04 #@! TF.GenerationSoftware,KiCad,Pcbnew,(5.0.2)-1*
G04 #@! TF.CreationDate,2019-04-18T12:23:36+05:30*
G04 #@! TF.ProjectId,ti_based,74695f62-6173-4656-942e-6b696361645f,rev?*
G04 #@! TF.SameCoordinates,Original*
G04 #@! TF.FileFunction,Copper,L2,Bot*
G04 #@! TF.FilePolarity,Positive*
%FSLAX46Y46*%
G04 Gerber Fmt 4.6, Leading zero omitted, Abs format (unit mm)*
G04 Created by KiCad (PCBNEW (5.0.2)-1) date 18/04/2019 12:23:36*
%MOMM*%
%LPD*%
G01*
G04 APERTURE LIST*
G04 #@! TA.AperFunction,ComponentPad*
%ADD10R,1.350000X1.350000*%
G04 #@! TD*
G04 #@! TA.AperFunction,ComponentPad*
%ADD11O,1.350000X1.350000*%
G04 #@! TD*
G04 #@! TA.AperFunction,ViaPad*
%ADD12C,0.800000*%
G04 #@! TD*
G04 #@! TA.AperFunction,Conductor*
%ADD13C,0.250000*%
G04 #@! TD*
G04 #@! TA.AperFunction,Conductor*
%ADD14C,0.254000*%
G04 #@! TD*
G04 APERTURE END LIST*
D10*
G04 #@! TO.P,J1,1*
G04 #@! TO.N,/RAW*
X52070000Y-35560000D03*
D11*
G04 #@! TO.P,J1,2*
G04 #@! TO.N,/AGND*
X52070000Y-33560000D03*
G04 #@! TD*
G04 #@! TO.P,J2,12*
G04 #@! TO.N,Net-(J2-Pad12)*
X52070000Y-38735000D03*
G04 #@! TO.P,J2,11*
G04 #@! TO.N,Net-(J2-Pad11)*
X52070000Y-40735000D03*
G04 #@! TO.P,J2,10*
G04 #@! TO.N,Net-(J2-Pad10)*
X52070000Y-42735000D03*
G04 #@! TO.P,J2,9*
G04 #@! TO.N,Net-(J2-Pad9)*
X52070000Y-44735000D03*
G04 #@! TO.P,J2,8*
G04 #@! TO.N,Net-(J2-Pad8)*
X52070000Y-46735000D03*
G04 #@! TO.P,J2,7*
G04 #@! TO.N,Net-(J2-Pad7)*
X52070000Y-48735000D03*
G04 #@! TO.P,J2,6*
G04 #@! TO.N,Net-(J2-Pad6)*
X52070000Y-50735000D03*
G04 #@! TO.P,J2,5*
G04 #@! TO.N,Net-(J2-Pad5)*
X52070000Y-52735000D03*
G04 #@! TO.P,J2,4*
G04 #@! TO.N,Net-(J2-Pad4)*
X52070000Y-54735000D03*
G04 #@! TO.P,J2,3*
G04 #@! TO.N,Net-(J2-Pad3)*
X52070000Y-56735000D03*
G04 #@! TO.P,J2,2*
G04 #@! TO.N,Net-(J2-Pad2)*
X52070000Y-58735000D03*
D10*
G04 #@! TO.P,J2,1*
G04 #@! TO.N,Net-(J2-Pad1)*
X52070000Y-60735000D03*
G04 #@! TD*
G04 #@! TO.P,J3,1*
G04 #@! TO.N,Net-(IC3-Pad47)*
X119380000Y-35560000D03*
D11*
G04 #@! TO.P,J3,2*
G04 #@! TO.N,Net-(IC3-Pad46)*
X119380000Y-37560000D03*
G04 #@! TO.P,J3,3*
G04 #@! TO.N,Net-(IC3-Pad45)*
X119380000Y-39560000D03*
G04 #@! TO.P,J3,4*
G04 #@! TO.N,Net-(IC3-Pad44)*
X119380000Y-41560000D03*
G04 #@! TO.P,J3,5*
G04 #@! TO.N,Net-(IC3-Pad43)*
X119380000Y-43560000D03*
G04 #@! TO.P,J3,6*
G04 #@! TO.N,Net-(IC3-Pad42)*
X119380000Y-45560000D03*
G04 #@! TO.P,J3,7*
G04 #@! TO.N,Net-(IC3-Pad40)*
X119380000Y-47560000D03*
G04 #@! TO.P,J3,8*
G04 #@! TO.N,Net-(IC3-Pad39)*
X119380000Y-49560000D03*
G04 #@! TO.P,J3,9*
G04 #@! TO.N,Net-(IC3-Pad38)*
X119380000Y-51560000D03*
G04 #@! TO.P,J3,10*
G04 #@! TO.N,Net-(IC3-Pad37)*
X119380000Y-53560000D03*
G04 #@! TO.P,J3,11*
G04 #@! TO.N,Net-(IC3-Pad36)*
X119380000Y-55560000D03*
G04 #@! TO.P,J3,12*
G04 #@! TO.N,Net-(IC3-Pad34)*
X119380000Y-57560000D03*
G04 #@! TD*
D12*
G04 #@! TO.N,/AGND*
X114935000Y-37465000D03*
X85725000Y-38100000D03*
X85725000Y-42545000D03*
X85725000Y-46355000D03*
X85725000Y-50165000D03*
X85725000Y-53975000D03*
X85725000Y-57785000D03*
X92710000Y-55245000D03*
X92710000Y-58420000D03*
X92075000Y-46355000D03*
X92710000Y-43815000D03*
X91905102Y-49995102D03*
X110490000Y-51435000D03*
X57261178Y-35079610D03*
X74699658Y-30964342D03*
X65532000Y-32004000D03*
X68580000Y-35306000D03*
X69596000Y-31750000D03*
X73914000Y-36068000D03*
X59182000Y-30480000D03*
X88646000Y-32258000D03*
X118364000Y-30988000D03*
X109220000Y-30480000D03*
X92202000Y-36052010D03*
X102870000Y-30189000D03*
X92202000Y-41654990D03*
X106934000Y-46736000D03*
G04 #@! TO.N,/AVSS*
X109855000Y-37465000D03*
X100330000Y-54610000D03*
X102235000Y-60960000D03*
X107950000Y-60960000D03*
X99060000Y-59690000D03*
X96266000Y-37084000D03*
X104394000Y-43942000D03*
X102366653Y-43175347D03*
X103378000Y-50800000D03*
X107188000Y-53885000D03*
G04 #@! TD*
D13*
G04 #@! TO.N,/AVSS*
X99060000Y-55880000D02*
X100330000Y-54610000D01*
X99060000Y-59690000D02*
X99060000Y-55880000D01*
X109474000Y-37084000D02*
X109855000Y-37465000D01*
X96266000Y-37084000D02*
X109474000Y-37084000D01*
X109855000Y-38481000D02*
X109855000Y-37465000D01*
X104394000Y-43942000D02*
X109855000Y-38481000D01*
X103627347Y-43175347D02*
X104394000Y-43942000D01*
X102366653Y-43175347D02*
X103627347Y-43175347D01*
X103994001Y-44341999D02*
X103994001Y-50183999D01*
X104394000Y-43942000D02*
X103994001Y-44341999D01*
X103994001Y-50183999D02*
X103378000Y-50800000D01*
X100330000Y-53848000D02*
X103378000Y-50800000D01*
X100330000Y-54610000D02*
X100330000Y-53848000D01*
X103378000Y-50800000D02*
X104103000Y-50800000D01*
X104103000Y-50800000D02*
X107188000Y-53885000D01*
X100965000Y-59690000D02*
X102235000Y-60960000D01*
X99060000Y-59690000D02*
X100965000Y-59690000D01*
X107550001Y-61359999D02*
X107950000Y-60960000D01*
X102634999Y-61359999D02*
X107550001Y-61359999D01*
X102235000Y-60960000D02*
X102634999Y-61359999D01*
G04 #@! TD*
D14*
G04 #@! TO.N,/AGND*
G36*
X120575001Y-31680070D02*
X120575000Y-31680075D01*
X120575000Y-34520266D01*
X120512809Y-34427191D01*
X120302765Y-34286843D01*
X120055000Y-34237560D01*
X118705000Y-34237560D01*
X118457235Y-34286843D01*
X118247191Y-34427191D01*
X118106843Y-34637235D01*
X118057560Y-34885000D01*
X118057560Y-36235000D01*
X118106843Y-36482765D01*
X118247191Y-36692809D01*
X118341714Y-36755968D01*
X118146007Y-37048864D01*
X118044336Y-37560000D01*
X118146007Y-38071136D01*
X118435543Y-38504457D01*
X118518669Y-38560000D01*
X118435543Y-38615543D01*
X118146007Y-39048864D01*
X118044336Y-39560000D01*
X118146007Y-40071136D01*
X118435543Y-40504457D01*
X118518669Y-40560000D01*
X118435543Y-40615543D01*
X118146007Y-41048864D01*
X118044336Y-41560000D01*
X118146007Y-42071136D01*
X118435543Y-42504457D01*
X118518669Y-42560000D01*
X118435543Y-42615543D01*
X118146007Y-43048864D01*
X118044336Y-43560000D01*
X118146007Y-44071136D01*
X118435543Y-44504457D01*
X118518669Y-44560000D01*
X118435543Y-44615543D01*
X118146007Y-45048864D01*
X118044336Y-45560000D01*
X118146007Y-46071136D01*
X118435543Y-46504457D01*
X118518669Y-46560000D01*
X118435543Y-46615543D01*
X118146007Y-47048864D01*
X118044336Y-47560000D01*
X118146007Y-48071136D01*
X118435543Y-48504457D01*
X118518669Y-48560000D01*
X118435543Y-48615543D01*
X118146007Y-49048864D01*
X118044336Y-49560000D01*
X118146007Y-50071136D01*
X118435543Y-50504457D01*
X118518669Y-50560000D01*
X118435543Y-50615543D01*
X118146007Y-51048864D01*
X118044336Y-51560000D01*
X118146007Y-52071136D01*
X118435543Y-52504457D01*
X118518669Y-52560000D01*
X118435543Y-52615543D01*
X118146007Y-53048864D01*
X118044336Y-53560000D01*
X118146007Y-54071136D01*
X118435543Y-54504457D01*
X118518669Y-54560000D01*
X118435543Y-54615543D01*
X118146007Y-55048864D01*
X118044336Y-55560000D01*
X118146007Y-56071136D01*
X118435543Y-56504457D01*
X118518669Y-56560000D01*
X118435543Y-56615543D01*
X118146007Y-57048864D01*
X118044336Y-57560000D01*
X118146007Y-58071136D01*
X118435543Y-58504457D01*
X118868864Y-58793993D01*
X119250978Y-58870000D01*
X119509022Y-58870000D01*
X119891136Y-58793993D01*
X120324457Y-58504457D01*
X120575001Y-58129492D01*
X120575001Y-61520000D01*
X111112102Y-61520000D01*
X111068083Y-61332235D01*
X107985705Y-54551006D01*
X108065431Y-54471280D01*
X108223000Y-54090874D01*
X108223000Y-53679126D01*
X108065431Y-53298720D01*
X107774280Y-53007569D01*
X107545214Y-52912687D01*
X106670340Y-49413190D01*
X106090389Y-44773579D01*
X110826549Y-41813479D01*
X110985852Y-41671681D01*
X116065852Y-35321681D01*
X116168799Y-35136341D01*
X116204095Y-34891103D01*
X116142855Y-34651026D01*
X115994404Y-34452659D01*
X115781341Y-34326201D01*
X104986341Y-30516201D01*
X104775000Y-30480000D01*
X102235000Y-30480000D01*
X102007048Y-30522326D01*
X93752048Y-33697326D01*
X93530987Y-33840987D01*
X93393336Y-34046996D01*
X93345000Y-34290000D01*
X93345000Y-61520000D01*
X53370560Y-61520000D01*
X53392440Y-61410000D01*
X53392440Y-60060000D01*
X53343157Y-59812235D01*
X53202809Y-59602191D01*
X53108286Y-59539032D01*
X53303993Y-59246136D01*
X53405664Y-58735000D01*
X53303993Y-58223864D01*
X53014457Y-57790543D01*
X52931331Y-57735000D01*
X53014457Y-57679457D01*
X53303993Y-57246136D01*
X53405664Y-56735000D01*
X53303993Y-56223864D01*
X53014457Y-55790543D01*
X52931331Y-55735000D01*
X53014457Y-55679457D01*
X53303993Y-55246136D01*
X53405664Y-54735000D01*
X53303993Y-54223864D01*
X53014457Y-53790543D01*
X52931331Y-53735000D01*
X53014457Y-53679457D01*
X53303993Y-53246136D01*
X53405664Y-52735000D01*
X53303993Y-52223864D01*
X53014457Y-51790543D01*
X52931331Y-51735000D01*
X53014457Y-51679457D01*
X53303993Y-51246136D01*
X53405664Y-50735000D01*
X53303993Y-50223864D01*
X53014457Y-49790543D01*
X52931331Y-49735000D01*
X53014457Y-49679457D01*
X53303993Y-49246136D01*
X53405664Y-48735000D01*
X53303993Y-48223864D01*
X53014457Y-47790543D01*
X52931331Y-47735000D01*
X53014457Y-47679457D01*
X53303993Y-47246136D01*
X53405664Y-46735000D01*
X53303993Y-46223864D01*
X53014457Y-45790543D01*
X52931331Y-45735000D01*
X53014457Y-45679457D01*
X53303993Y-45246136D01*
X53405664Y-44735000D01*
X53303993Y-44223864D01*
X53014457Y-43790543D01*
X52931331Y-43735000D01*
X53014457Y-43679457D01*
X53303993Y-43246136D01*
X53405664Y-42735000D01*
X53303993Y-42223864D01*
X53014457Y-41790543D01*
X52931331Y-41735000D01*
X53014457Y-41679457D01*
X53303993Y-41246136D01*
X53405664Y-40735000D01*
X53303993Y-40223864D01*
X53014457Y-39790543D01*
X52931331Y-39735000D01*
X53014457Y-39679457D01*
X53303993Y-39246136D01*
X53405664Y-38735000D01*
X53303993Y-38223864D01*
X53014457Y-37790543D01*
X52581136Y-37501007D01*
X52199022Y-37425000D01*
X51940978Y-37425000D01*
X51558864Y-37501007D01*
X51510000Y-37533657D01*
X51510000Y-36882440D01*
X52745000Y-36882440D01*
X52992765Y-36833157D01*
X53202809Y-36692809D01*
X53343157Y-36482765D01*
X53392440Y-36235000D01*
X53392440Y-34885000D01*
X53343157Y-34637235D01*
X53202809Y-34427191D01*
X53087070Y-34349856D01*
X53199478Y-34223633D01*
X53337910Y-33889400D01*
X53214224Y-33687000D01*
X52197000Y-33687000D01*
X52197000Y-33707000D01*
X51943000Y-33707000D01*
X51943000Y-33687000D01*
X51923000Y-33687000D01*
X51923000Y-33433000D01*
X51943000Y-33433000D01*
X51943000Y-32414910D01*
X52197000Y-32414910D01*
X52197000Y-33433000D01*
X53214224Y-33433000D01*
X53337910Y-33230600D01*
X53199478Y-32896367D01*
X52859540Y-32514651D01*
X52399402Y-32292080D01*
X52197000Y-32414910D01*
X51943000Y-32414910D01*
X51740598Y-32292080D01*
X51510000Y-32403621D01*
X51510000Y-29285000D01*
X120575000Y-29285000D01*
X120575001Y-31680070D01*
X120575001Y-31680070D01*
G37*
X120575001Y-31680070D02*
X120575000Y-31680075D01*
X120575000Y-34520266D01*
X120512809Y-34427191D01*
X120302765Y-34286843D01*
X120055000Y-34237560D01*
X118705000Y-34237560D01*
X118457235Y-34286843D01*
X118247191Y-34427191D01*
X118106843Y-34637235D01*
X118057560Y-34885000D01*
X118057560Y-36235000D01*
X118106843Y-36482765D01*
X118247191Y-36692809D01*
X118341714Y-36755968D01*
X118146007Y-37048864D01*
X118044336Y-37560000D01*
X118146007Y-38071136D01*
X118435543Y-38504457D01*
X118518669Y-38560000D01*
X118435543Y-38615543D01*
X118146007Y-39048864D01*
X118044336Y-39560000D01*
X118146007Y-40071136D01*
X118435543Y-40504457D01*
X118518669Y-40560000D01*
X118435543Y-40615543D01*
X118146007Y-41048864D01*
X118044336Y-41560000D01*
X118146007Y-42071136D01*
X118435543Y-42504457D01*
X118518669Y-42560000D01*
X118435543Y-42615543D01*
X118146007Y-43048864D01*
X118044336Y-43560000D01*
X118146007Y-44071136D01*
X118435543Y-44504457D01*
X118518669Y-44560000D01*
X118435543Y-44615543D01*
X118146007Y-45048864D01*
X118044336Y-45560000D01*
X118146007Y-46071136D01*
X118435543Y-46504457D01*
X118518669Y-46560000D01*
X118435543Y-46615543D01*
X118146007Y-47048864D01*
X118044336Y-47560000D01*
X118146007Y-48071136D01*
X118435543Y-48504457D01*
X118518669Y-48560000D01*
X118435543Y-48615543D01*
X118146007Y-49048864D01*
X118044336Y-49560000D01*
X118146007Y-50071136D01*
X118435543Y-50504457D01*
X118518669Y-50560000D01*
X118435543Y-50615543D01*
X118146007Y-51048864D01*
X118044336Y-51560000D01*
X118146007Y-52071136D01*
X118435543Y-52504457D01*
X118518669Y-52560000D01*
X118435543Y-52615543D01*
X118146007Y-53048864D01*
X118044336Y-53560000D01*
X118146007Y-54071136D01*
X118435543Y-54504457D01*
X118518669Y-54560000D01*
X118435543Y-54615543D01*
X118146007Y-55048864D01*
X118044336Y-55560000D01*
X118146007Y-56071136D01*
X118435543Y-56504457D01*
X118518669Y-56560000D01*
X118435543Y-56615543D01*
X118146007Y-57048864D01*
X118044336Y-57560000D01*
X118146007Y-58071136D01*
X118435543Y-58504457D01*
X118868864Y-58793993D01*
X119250978Y-58870000D01*
X119509022Y-58870000D01*
X119891136Y-58793993D01*
X120324457Y-58504457D01*
X120575001Y-58129492D01*
X120575001Y-61520000D01*
X111112102Y-61520000D01*
X111068083Y-61332235D01*
X107985705Y-54551006D01*
X108065431Y-54471280D01*
X108223000Y-54090874D01*
X108223000Y-53679126D01*
X108065431Y-53298720D01*
X107774280Y-53007569D01*
X107545214Y-52912687D01*
X106670340Y-49413190D01*
X106090389Y-44773579D01*
X110826549Y-41813479D01*
X110985852Y-41671681D01*
X116065852Y-35321681D01*
X116168799Y-35136341D01*
X116204095Y-34891103D01*
X116142855Y-34651026D01*
X115994404Y-34452659D01*
X115781341Y-34326201D01*
X104986341Y-30516201D01*
X104775000Y-30480000D01*
X102235000Y-30480000D01*
X102007048Y-30522326D01*
X93752048Y-33697326D01*
X93530987Y-33840987D01*
X93393336Y-34046996D01*
X93345000Y-34290000D01*
X93345000Y-61520000D01*
X53370560Y-61520000D01*
X53392440Y-61410000D01*
X53392440Y-60060000D01*
X53343157Y-59812235D01*
X53202809Y-59602191D01*
X53108286Y-59539032D01*
X53303993Y-59246136D01*
X53405664Y-58735000D01*
X53303993Y-58223864D01*
X53014457Y-57790543D01*
X52931331Y-57735000D01*
X53014457Y-57679457D01*
X53303993Y-57246136D01*
X53405664Y-56735000D01*
X53303993Y-56223864D01*
X53014457Y-55790543D01*
X52931331Y-55735000D01*
X53014457Y-55679457D01*
X53303993Y-55246136D01*
X53405664Y-54735000D01*
X53303993Y-54223864D01*
X53014457Y-53790543D01*
X52931331Y-53735000D01*
X53014457Y-53679457D01*
X53303993Y-53246136D01*
X53405664Y-52735000D01*
X53303993Y-52223864D01*
X53014457Y-51790543D01*
X52931331Y-51735000D01*
X53014457Y-51679457D01*
X53303993Y-51246136D01*
X53405664Y-50735000D01*
X53303993Y-50223864D01*
X53014457Y-49790543D01*
X52931331Y-49735000D01*
X53014457Y-49679457D01*
X53303993Y-49246136D01*
X53405664Y-48735000D01*
X53303993Y-48223864D01*
X53014457Y-47790543D01*
X52931331Y-47735000D01*
X53014457Y-47679457D01*
X53303993Y-47246136D01*
X53405664Y-46735000D01*
X53303993Y-46223864D01*
X53014457Y-45790543D01*
X52931331Y-45735000D01*
X53014457Y-45679457D01*
X53303993Y-45246136D01*
X53405664Y-44735000D01*
X53303993Y-44223864D01*
X53014457Y-43790543D01*
X52931331Y-43735000D01*
X53014457Y-43679457D01*
X53303993Y-43246136D01*
X53405664Y-42735000D01*
X53303993Y-42223864D01*
X53014457Y-41790543D01*
X52931331Y-41735000D01*
X53014457Y-41679457D01*
X53303993Y-41246136D01*
X53405664Y-40735000D01*
X53303993Y-40223864D01*
X53014457Y-39790543D01*
X52931331Y-39735000D01*
X53014457Y-39679457D01*
X53303993Y-39246136D01*
X53405664Y-38735000D01*
X53303993Y-38223864D01*
X53014457Y-37790543D01*
X52581136Y-37501007D01*
X52199022Y-37425000D01*
X51940978Y-37425000D01*
X51558864Y-37501007D01*
X51510000Y-37533657D01*
X51510000Y-36882440D01*
X52745000Y-36882440D01*
X52992765Y-36833157D01*
X53202809Y-36692809D01*
X53343157Y-36482765D01*
X53392440Y-36235000D01*
X53392440Y-34885000D01*
X53343157Y-34637235D01*
X53202809Y-34427191D01*
X53087070Y-34349856D01*
X53199478Y-34223633D01*
X53337910Y-33889400D01*
X53214224Y-33687000D01*
X52197000Y-33687000D01*
X52197000Y-33707000D01*
X51943000Y-33707000D01*
X51943000Y-33687000D01*
X51923000Y-33687000D01*
X51923000Y-33433000D01*
X51943000Y-33433000D01*
X51943000Y-32414910D01*
X52197000Y-32414910D01*
X52197000Y-33433000D01*
X53214224Y-33433000D01*
X53337910Y-33230600D01*
X53199478Y-32896367D01*
X52859540Y-32514651D01*
X52399402Y-32292080D01*
X52197000Y-32414910D01*
X51943000Y-32414910D01*
X51740598Y-32292080D01*
X51510000Y-32403621D01*
X51510000Y-29285000D01*
X120575000Y-29285000D01*
X120575001Y-31680070D01*
G04 #@! TO.N,/AVSS*
G36*
X115359152Y-34985261D02*
X110404346Y-41178769D01*
X105342690Y-44342304D01*
X105306600Y-44376260D01*
X105286252Y-44421443D01*
X105283981Y-44465752D01*
X105918981Y-49545752D01*
X105921792Y-49560802D01*
X107191792Y-54640802D01*
X107199383Y-54662553D01*
X110292768Y-61468000D01*
X94107000Y-61468000D01*
X94107000Y-34377223D01*
X102258581Y-31242000D01*
X104753245Y-31242000D01*
X115359152Y-34985261D01*
X115359152Y-34985261D01*
G37*
X115359152Y-34985261D02*
X110404346Y-41178769D01*
X105342690Y-44342304D01*
X105306600Y-44376260D01*
X105286252Y-44421443D01*
X105283981Y-44465752D01*
X105918981Y-49545752D01*
X105921792Y-49560802D01*
X107191792Y-54640802D01*
X107199383Y-54662553D01*
X110292768Y-61468000D01*
X94107000Y-61468000D01*
X94107000Y-34377223D01*
X102258581Y-31242000D01*
X104753245Y-31242000D01*
X115359152Y-34985261D01*
G04 #@! TD*
M02*
