M48
;DRILL file {KiCad (5.0.2)-1} date 18/04/2019 12:24:11
;FORMAT={-:-/ absolute / inch / decimal}
FMAT,2
INCH,TZ
T1C0.0157
T2C0.0315
%
G90
G05
T1
X2.2544Y-1.3811
X2.33Y-1.2
X2.58Y-1.26
X2.7Y-1.39
X2.74Y-1.25
X2.91Y-1.42
X2.9409Y-1.2191
X3.375Y-1.5
X3.375Y-1.675
X3.375Y-1.825
X3.375Y-1.975
X3.375Y-2.125
X3.375Y-2.275
X3.49Y-1.27
X3.6183Y-1.9683
X3.625Y-1.825
X3.63Y-1.4194
X3.63Y-1.64
X3.65Y-1.725
X3.65Y-2.175
X3.65Y-2.3
X3.79Y-1.46
X3.9Y-2.35
X3.95Y-2.15
X4.025Y-2.4
X4.0302Y-1.6998
X4.05Y-1.1885
X4.07Y-2.
X4.11Y-1.73
X4.21Y-1.84
X4.22Y-2.1215
X4.25Y-2.4
X4.3Y-1.2
X4.325Y-1.475
X4.35Y-2.025
X4.525Y-1.475
X4.66Y-1.22
T2
X2.05Y-1.3213
X2.05Y-1.4
X2.05Y-1.525
X2.05Y-1.6037
X2.05Y-1.6825
X2.05Y-1.7612
X2.05Y-1.84
X2.05Y-1.9187
X2.05Y-1.9974
X2.05Y-2.0762
X2.05Y-2.1549
X2.05Y-2.2337
X2.05Y-2.3124
X2.05Y-2.3911
X4.7Y-1.4
X4.7Y-1.4787
X4.7Y-1.5575
X4.7Y-1.6362
X4.7Y-1.715
X4.7Y-1.7937
X4.7Y-1.8724
X4.7Y-1.9512
X4.7Y-2.0299
X4.7Y-2.1087
X4.7Y-2.1874
X4.7Y-2.2661
T0
M30
